<svg width="1079" height="243" viewBox="0 0 1079 243" fill="none" xmlns="http://www.w3.org/2000/svg">
<rect x="129" y="26.8945" width="108" height="108" rx="54" fill="#DEC756" stroke="black" stroke-width="2"/>
<rect x="139" y="36.8945" width="88" height="88" rx="44" stroke="#1A1A1A" stroke-width="2"/>
<rect x="176" y="62.8945" width="14" height="36" stroke="#1A1A1A" stroke-width="2"/>
<rect y="96.8945" width="100" height="170" transform="rotate(-45 0 96.8945)" fill="#535B4C"/>
<path d="M83.3848 109.924C88.139 105.17 93.7635 102.246 98.9763 101.326C104.193 100.406 108.9 101.498 112.023 104.621C115.146 107.744 116.238 112.45 115.317 117.667C114.397 122.88 111.474 128.504 106.719 133.258C101.965 138.013 96.3406 140.936 91.1277 141.856C85.9113 142.777 81.2044 141.685 78.0815 138.562C74.9586 135.439 73.8665 130.732 74.7869 125.516C75.7069 120.303 78.6305 114.678 83.3848 109.924Z" stroke="white" stroke-width="2"/>
<rect x="15.4806" y="96.8945" width="78" height="148" transform="rotate(-45 15.4806 96.8945)" stroke="white" stroke-width="2"/>
<path d="M380.762 189.662C370.493 189.662 361.428 187.824 353.568 184.147C345.707 180.471 339.559 175.21 335.122 168.364C330.684 161.518 328.466 153.277 328.466 143.642V138.317H353.187V143.642C353.187 151.629 355.66 157.651 360.604 161.708C365.548 165.638 372.267 167.603 380.762 167.603C389.382 167.603 395.785 165.891 399.968 162.468C404.279 159.045 406.434 154.672 406.434 149.347C406.434 145.67 405.356 142.691 403.201 140.409C401.173 138.127 398.13 136.289 394.073 134.894C390.143 133.373 385.326 131.978 379.621 130.711L375.247 129.76C366.119 127.731 358.258 125.196 351.666 122.153C345.2 118.984 340.193 114.863 336.643 109.792C333.22 104.721 331.508 98.1287 331.508 90.0149C331.508 81.9012 333.41 74.9918 337.213 69.2868C341.143 63.455 346.595 59.0178 353.568 55.9751C360.667 52.8056 368.971 51.2209 378.48 51.2209C387.988 51.2209 396.419 52.869 403.772 56.1653C411.252 59.3347 417.083 64.1523 421.267 70.6179C425.578 76.9568 427.733 84.9438 427.733 94.5789V100.284H403.011V94.5789C403.011 89.5078 401.997 85.4509 399.968 82.4083C398.067 79.2388 395.278 76.9568 391.601 75.5623C387.924 74.0409 383.551 73.2803 378.48 73.2803C370.873 73.2803 365.231 74.7382 361.555 77.6541C358.005 80.4432 356.23 84.3099 356.23 89.2543C356.23 92.5505 357.054 95.3396 358.702 97.6216C360.477 99.9036 363.076 101.805 366.499 103.327C369.922 104.848 374.296 106.179 379.621 107.32L383.994 108.271C393.503 110.299 401.743 112.898 408.716 116.068C415.816 119.237 421.33 123.421 425.261 128.619C429.191 133.817 431.156 140.473 431.156 148.586C431.156 156.7 429.064 163.863 424.88 170.075C420.823 176.16 414.992 180.978 407.385 184.528C399.905 187.951 391.031 189.662 380.762 189.662ZM450.637 225.033V92.6773H474.218V104.087H477.641C479.796 100.411 483.156 97.1779 487.72 94.3888C492.284 91.4729 498.813 90.0149 507.307 90.0149C514.914 90.0149 521.95 91.9166 528.416 95.7199C534.881 99.3965 540.079 104.848 544.009 112.074C547.939 119.301 549.904 128.048 549.904 138.317V141.36C549.904 151.629 547.939 160.377 544.009 167.603C540.079 174.829 534.881 180.344 528.416 184.147C521.95 187.824 514.914 189.662 507.307 189.662C501.602 189.662 496.785 188.965 492.854 187.571C489.051 186.303 485.945 184.655 483.536 182.626C481.254 180.471 479.416 178.316 478.021 176.16H474.598V225.033H450.637ZM500.081 168.744C507.561 168.744 513.709 166.399 518.527 161.708C523.471 156.89 525.943 149.917 525.943 140.789V138.888C525.943 129.76 523.471 122.85 518.527 118.16C513.583 113.342 507.434 110.933 500.081 110.933C492.728 110.933 486.579 113.342 481.635 118.16C476.69 122.85 474.218 129.76 474.218 138.888V140.789C474.218 149.917 476.69 156.89 481.635 161.708C486.579 166.399 492.728 168.744 500.081 168.744ZM614.884 189.662C605.502 189.662 597.198 187.697 589.972 183.767C582.872 179.71 577.294 174.069 573.237 166.842C569.307 159.489 567.342 150.868 567.342 140.98V138.698C567.342 128.809 569.307 120.251 573.237 113.025C577.167 105.672 582.682 100.03 589.782 96.1003C596.881 92.0434 605.122 90.0149 614.503 90.0149C623.758 90.0149 631.808 92.1068 638.654 96.2904C645.5 100.347 650.825 106.052 654.628 113.405C658.432 120.632 660.333 129.063 660.333 138.698V146.875H591.683C591.937 153.34 594.346 158.602 598.91 162.659C603.474 166.716 609.052 168.744 615.644 168.744C622.363 168.744 627.308 167.286 630.477 164.37C633.647 161.454 636.055 158.221 637.704 154.672L657.291 164.941C655.516 168.237 652.917 171.85 649.494 175.78C646.198 179.583 641.76 182.88 636.182 185.669C630.604 188.331 623.504 189.662 614.884 189.662ZM591.873 128.999H635.992C635.485 123.548 633.266 119.174 629.336 115.878C625.533 112.581 620.525 110.933 614.313 110.933C607.847 110.933 602.713 112.581 598.91 115.878C595.106 119.174 592.761 123.548 591.873 128.999ZM681.66 187V92.6773H705.241V105.038H708.664C710.185 101.742 713.038 98.6358 717.222 95.7199C721.405 92.6773 727.744 91.1559 736.238 91.1559C743.591 91.1559 749.994 92.8674 755.445 96.2904C761.023 99.5867 765.334 104.214 768.376 110.173C771.419 116.004 772.94 122.85 772.94 130.711V187H748.979V132.612C748.979 125.513 747.204 120.188 743.655 116.638C740.232 113.089 735.287 111.314 728.822 111.314C721.469 111.314 715.764 113.786 711.707 118.73C707.65 123.548 705.621 130.33 705.621 139.078V187H681.66ZM836.877 189.662C829.397 189.662 822.36 187.824 815.768 184.147C809.302 180.344 804.104 174.829 800.174 167.603C796.244 160.377 794.279 151.629 794.279 141.36V138.317C794.279 128.048 796.244 119.301 800.174 112.074C804.104 104.848 809.302 99.3965 815.768 95.7199C822.234 91.9166 829.27 90.0149 836.877 90.0149C842.582 90.0149 847.336 90.7122 851.139 92.1068C855.069 93.3746 858.239 95.0227 860.647 97.0511C863.056 99.0796 864.894 101.235 866.162 103.517H869.585V53.8832H893.546V187H869.966V175.59H866.543C864.387 179.14 861.028 182.373 856.464 185.288C852.027 188.204 845.497 189.662 836.877 189.662ZM844.103 168.744C851.456 168.744 857.605 166.399 862.549 161.708C867.493 156.89 869.966 149.917 869.966 140.789V138.888C869.966 129.76 867.493 122.85 862.549 118.16C857.732 113.342 851.583 110.933 844.103 110.933C836.75 110.933 830.601 113.342 825.657 118.16C820.712 122.85 818.24 129.76 818.24 138.888V140.789C818.24 149.917 820.712 156.89 825.657 161.708C830.601 166.399 836.75 168.744 844.103 168.744ZM920.112 187V92.6773H944.073V187H920.112ZM932.092 81.6476C927.782 81.6476 924.105 80.253 921.062 77.4639C918.147 74.6748 916.689 70.9983 916.689 66.4343C916.689 61.8703 918.147 58.1937 921.062 55.4046C924.105 52.6155 927.782 51.2209 932.092 51.2209C936.529 51.2209 940.206 52.6155 943.122 55.4046C946.038 58.1937 947.496 61.8703 947.496 66.4343C947.496 70.9983 946.038 74.6748 943.122 77.4639C940.206 80.253 936.529 81.6476 932.092 81.6476ZM1008.66 189.662C1001.18 189.662 994.142 187.824 987.55 184.147C981.084 180.344 975.886 174.829 971.956 167.603C968.026 160.377 966.061 151.629 966.061 141.36V138.317C966.061 128.048 968.026 119.301 971.956 112.074C975.886 104.848 981.084 99.3965 987.55 95.7199C994.015 91.9166 1001.05 90.0149 1008.66 90.0149C1014.36 90.0149 1019.12 90.7122 1022.92 92.1068C1026.85 93.3746 1030.02 95.0227 1032.43 97.0511C1034.84 99.0796 1036.68 101.235 1037.94 103.517H1041.37V53.8832H1065.33V187H1041.75V175.59H1038.32C1036.17 179.14 1032.81 182.373 1028.25 185.288C1023.81 188.204 1017.28 189.662 1008.66 189.662ZM1015.88 168.744C1023.24 168.744 1029.39 166.399 1034.33 161.708C1039.27 156.89 1041.75 149.917 1041.75 140.789V138.888C1041.75 129.76 1039.27 122.85 1034.33 118.16C1029.51 113.342 1023.36 110.933 1015.88 110.933C1008.53 110.933 1002.38 113.342 997.438 118.16C992.494 122.85 990.022 129.76 990.022 138.888V140.789C990.022 149.917 992.494 156.89 997.438 161.708C1002.38 166.399 1008.53 168.744 1015.88 168.744Z" fill="#1F2518"/>
</svg>
