<svg width="904" height="262" viewBox="0 0 904 262" fill="none" xmlns="http://www.w3.org/2000/svg">
<rect x="129" y="36.3945" width="108" height="108" rx="54" fill="#DEC756" stroke="black" stroke-width="2"/>
<rect x="139" y="46.3945" width="88" height="88" rx="44" stroke="#1A1A1A" stroke-width="2"/>
<rect x="176" y="72.3945" width="14" height="36" stroke="#1A1A1A" stroke-width="2"/>
<rect y="106.395" width="100" height="170" transform="rotate(-45 0 106.395)" fill="#535B4C"/>
<path d="M83.3848 119.424C88.139 114.67 93.7635 111.746 98.9763 110.826C104.193 109.906 108.9 110.998 112.023 114.121C115.146 117.244 116.238 121.95 115.317 127.167C114.397 132.38 111.474 138.004 106.719 142.758C101.965 147.513 96.3406 150.436 91.1277 151.356C85.9113 152.277 81.2044 151.185 78.0815 148.062C74.9586 144.939 73.8665 140.232 74.7869 135.016C75.7069 129.803 78.6305 124.178 83.3848 119.424Z" stroke="white" stroke-width="2"/>
<rect x="15.4806" y="106.395" width="78" height="148" transform="rotate(-45 15.4806 106.395)" stroke="white" stroke-width="2"/>
<path d="M342.728 145.973V130.379H409.667V145.973H342.728ZM368.781 191.043V170.124H370.493V191.043H368.781ZM328.656 148.445V129.619H355.469V148.445H328.656ZM382.853 130.379V126.196H409.667V130.379H382.853ZM409.667 126.196H382.853C382.853 120.618 381.586 116.18 379.05 112.884C376.514 109.588 373.091 107.94 368.781 107.94V87.0214C376.641 87.0214 383.614 88.7329 389.699 92.1559C395.911 95.5789 400.792 100.27 404.342 106.228C407.892 112.06 409.667 118.716 409.667 126.196ZM384.565 154.531L408.336 158.904C407.321 165.497 405.103 171.202 401.68 176.019C398.257 180.837 393.883 184.577 388.558 187.239C383.234 189.775 377.212 191.043 370.493 191.043V170.124C374.169 170.124 377.275 168.793 379.811 166.131C382.346 163.342 383.931 159.475 384.565 154.531ZM328.656 129.809C328.656 121.568 330.431 114.279 333.981 107.94C337.53 101.474 342.284 96.403 348.243 92.7264C354.328 88.9231 361.238 87.0214 368.971 87.0214V107.94C364.661 107.94 361.301 109.905 358.892 113.835C356.61 117.638 355.469 122.963 355.469 129.809H328.656ZM328.656 148.255H355.469C355.469 155.101 356.61 160.489 358.892 164.419C361.301 168.223 364.661 170.124 368.971 170.124V191.043C361.238 191.043 354.328 189.204 348.243 185.528C342.284 181.724 337.53 176.59 333.981 170.124C330.431 163.659 328.656 156.369 328.656 148.255ZM473.714 188L416.474 90.0641H444.239L501.479 188H473.714ZM416.474 188L445.189 138.937H472.764L444.239 188H416.474ZM445.189 138.937L473.714 90.0641H501.479L472.764 138.937H445.189Z" fill="#ABA594"/>
<path d="M518.934 187.62H545.748V226.033H518.934V187.62ZM545.748 90.0641V188H518.934V90.0641H545.748ZM600.896 124.865V153.199H574.082V124.865H600.896ZM574.082 153.199H600.896C600.896 160.426 599.438 166.891 596.522 172.596C593.733 178.301 589.866 182.802 584.922 186.098C580.104 189.395 574.59 191.043 568.377 191.043L560.581 169.934C564.764 169.934 568.06 168.476 570.469 165.56C572.878 162.518 574.082 158.397 574.082 153.199ZM537.38 151.678H545.748C545.748 157.256 547.079 161.694 549.741 164.99C552.53 168.286 556.143 169.934 560.581 169.934L568.377 191.043C562.546 191.043 557.284 189.331 552.594 185.908C547.903 182.358 544.163 177.668 541.374 171.836C538.711 165.877 537.38 159.158 537.38 151.678ZM574.082 124.865C574.082 119.667 572.878 115.61 570.469 112.694C568.06 109.651 564.764 108.13 560.581 108.13L568.377 87.0214C574.59 87.0214 580.104 88.6696 584.922 91.9658C589.866 95.262 593.733 99.7626 596.522 105.468C599.438 111.173 600.896 117.638 600.896 124.865H574.082ZM537.38 126.196C537.38 118.716 538.711 112.06 541.374 106.228C544.163 100.27 547.903 95.5789 552.594 92.1559C557.284 88.7329 562.546 87.0214 568.377 87.0214L560.581 108.13C556.143 108.13 552.53 109.778 549.741 113.074C547.079 116.371 545.748 120.744 545.748 126.196H537.38ZM628.721 145.973V130.379H695.66V145.973H628.721ZM654.774 191.043V170.124H656.486V191.043H654.774ZM614.649 148.445V129.619H641.462V148.445H614.649ZM668.846 130.379V126.196H695.66V130.379H668.846ZM695.66 126.196H668.846C668.846 120.618 667.579 116.18 665.043 112.884C662.507 109.588 659.084 107.94 654.774 107.94V87.0214C662.634 87.0214 669.607 88.7329 675.692 92.1559C681.905 95.5789 686.785 100.27 690.335 106.228C693.885 112.06 695.66 118.716 695.66 126.196ZM670.558 154.531L694.329 158.904C693.315 165.497 691.096 171.202 687.673 176.019C684.25 180.837 679.876 184.577 674.551 187.239C669.227 189.775 663.205 191.043 656.486 191.043V170.124C660.162 170.124 663.268 168.793 665.804 166.131C668.339 163.342 669.924 159.475 670.558 154.531ZM614.649 129.809C614.649 121.568 616.424 114.279 619.974 107.94C623.523 101.474 628.277 96.403 634.236 92.7264C640.321 88.9231 647.231 87.0214 654.964 87.0214V107.94C650.654 107.94 647.294 109.905 644.885 113.835C642.603 117.638 641.462 122.963 641.462 129.809H614.649ZM614.649 148.255H641.462C641.462 155.101 642.603 160.489 644.885 164.419C647.294 168.223 650.654 170.124 654.964 170.124V191.043C647.231 191.043 640.321 189.204 634.236 185.528C628.277 181.724 623.523 176.59 619.974 170.124C616.424 163.659 614.649 156.369 614.649 148.255ZM712.258 188V90.0641H739.071V188H712.258ZM767.406 188V124.674H794.22V188H767.406ZM767.406 124.865C767.406 119.667 766.202 115.61 763.793 112.694C761.384 109.651 758.088 108.13 753.904 108.13L761.701 87.0214C767.913 87.0214 773.428 88.6696 778.246 91.9658C783.19 95.262 787.057 99.7626 789.846 105.468C792.762 111.173 794.22 117.638 794.22 124.865H767.406ZM730.704 126.196C730.704 118.716 732.035 112.06 734.698 106.228C737.487 100.27 741.227 95.5789 745.917 92.1559C750.608 88.7329 755.869 87.0214 761.701 87.0214L753.904 108.13C749.467 108.13 745.854 109.778 743.065 113.074C740.403 116.371 739.071 120.744 739.071 126.196H730.704ZM891.836 90.4444H865.023V52.0307H891.836V90.4444ZM865.023 188V90.0641H891.836V188H865.023ZM809.874 153.199V124.865H836.688V153.199H809.874ZM836.688 124.865H809.874C809.874 117.638 811.269 111.173 814.058 105.468C816.974 99.7626 820.841 95.262 825.658 91.9658C830.603 88.6696 836.181 87.0214 842.393 87.0214L850.19 108.13C846.006 108.13 842.71 109.651 840.301 112.694C837.892 115.61 836.688 119.667 836.688 124.865ZM873.39 126.196H865.023C865.023 120.744 863.628 116.371 860.839 113.074C858.177 109.778 854.627 108.13 850.19 108.13L842.393 87.0214C848.225 87.0214 853.486 88.7329 858.177 92.1559C862.867 95.5789 866.544 100.27 869.206 106.228C871.995 112.06 873.39 118.716 873.39 126.196ZM836.688 153.199C836.688 158.397 837.892 162.518 840.301 165.56C842.71 168.476 846.006 169.934 850.19 169.934L842.393 191.043C836.181 191.043 830.603 189.395 825.658 186.098C820.841 182.802 816.974 178.301 814.058 172.596C811.269 166.891 809.874 160.426 809.874 153.199H836.688ZM873.39 151.678C873.39 159.158 871.995 165.877 869.206 171.836C866.544 177.668 862.867 182.358 858.177 185.908C853.486 189.331 848.225 191.043 842.393 191.043L850.19 169.934C854.627 169.934 858.177 168.286 860.839 164.99C863.628 161.694 865.023 157.256 865.023 151.678H873.39Z" fill="white"/>
</svg>
